# xmcd
# 
# Track frame offsets:
#     150
#     21462
#     36927
#     48855
#     63152
#     77592
#     96912
#     115585
# 
# Disc length: 1784
# 
# Revision: 0
# Processed by: cddbd v1.5.2PL0 Copyright (c) Steve Scherf et al.
# Submitted via: fre:ac v1.0.17
# 
DISCID=5c06f608
DTITLE=Dispute - Trials in Life
DYEAR=1997
DGENRE=Metal
TTITLE0=Agitation
TTITLE1=Pain
TTITLE2=Too Late
TTITLE3=One Lost
TTITLE4=Greed
TTITLE5=Step Up
TTITLE6=Alone 97
TTITLE7=Cop Out
EXTD=
EXTT0=
EXTT1=
EXTT2=
EXTT3=
EXTT4=
EXTT5=
EXTT6=
EXTT7=
PLAYORDER=
